<svg enable-background="new 0 0 83.333 80.5" height="312.394561" viewBox="0 0 83.333 80.5" width="320.108006" xmlns="http://www.w3.org/2000/svg"><path clip-rule="evenodd" d="m8.488 63.227c-.488-.853-1.138-1.29-2.455-1.29-1.778 0-3.241 1.244-3.241 4.177 0 3.002 1.335 4.201 3.275 4.201.599 0 1.317-.138 1.941-.422l-.273-.791c-.505.223-1.077.338-1.65.338-1.445 0-2.274-1.09-2.274-3.325 0-2.135.838-3.294 2.223-3.294.839 0 1.386.223 1.813 1.014" fill="#e51f26" fill-rule="evenodd"/><path clip-rule="evenodd" d="m13.926 67.335c0-2.027-.915-2.972-2.506-2.972-1.599 0-2.506.945-2.506 2.972 0 2.035.907 2.979 2.506 2.979 1.591 0 2.506-.944 2.506-2.979m-.94 0c0 1.528-.564 2.135-1.565 2.135-1.009 0-1.564-.607-1.564-2.135 0-1.536.556-2.143 1.564-2.143 1 0 1.565.607 1.565 2.143z" fill="#e51f26" fill-rule="evenodd"/><path clip-rule="evenodd" d="m23.231 70.146v-3.402c0-1.551-.693-2.381-2.164-2.381-.658 0-1.394.146-2.078.538-.359-.384-.89-.538-1.505-.538-.838 0-1.821.154-2.403.3v5.483h.915v-4.746c.428-.092.933-.146 1.386-.146 1.009 0 1.325.637 1.325 1.82v3.072h.924v-3.402c-.009-.438-.06-.776-.171-1.052.513-.315 1.061-.438 1.514-.438 1.018 0 1.334.622 1.334 1.82v3.072" fill="#e51f26" fill-rule="evenodd"/><path clip-rule="evenodd" d="m32.842 70.146v-3.402c0-1.551-.692-2.381-2.154-2.381-.667 0-1.402.146-2.087.538-.359-.384-.881-.538-1.505-.538-.838 0-1.822.154-2.403.3v5.483h.924v-4.746c.419-.092.924-.146 1.385-.146 1.001 0 1.317.637 1.317 1.82v3.072h.924v-3.402c-.009-.438-.061-.776-.171-1.052.513-.315 1.06-.438 1.514-.438 1.018 0 1.334.622 1.334 1.82v3.072" fill="#e51f26" fill-rule="evenodd"/><path clip-rule="evenodd" d="m38.76 70.038v-5.483h-.924v4.746c-.427.077-.932.123-1.402.123-1.018 0-1.351-.645-1.351-1.82v-3.048h-.923v3.325c0 1.574.71 2.435 2.189 2.435.813-.002 1.719-.102 2.411-.278" fill="#e51f26" fill-rule="evenodd"/><path clip-rule="evenodd" d="m44.764 70.146v-3.402c0-1.536-.693-2.381-2.173-2.381-.854 0-1.847.154-2.437.3v5.483h.923v-4.746c.437-.092.949-.146 1.411-.146 1.026 0 1.343.637 1.343 1.82v3.072" fill="#e51f26" fill-rule="evenodd"/><path clip-rule="evenodd" d="m46.816 63.342v-1.367h-.923v1.367m.923 6.804v-5.59h-.923v5.59z" fill="#e51f26" fill-rule="evenodd"/><path clip-rule="evenodd" d="m52.46 65.507c-.471-.929-1.154-1.145-1.967-1.145-1.445 0-2.522.929-2.522 2.972 0 2.081 1.009 2.979 2.539 2.979.471 0 1.121-.146 1.65-.453l-.239-.699c-.394.215-.89.338-1.334.338-1.214 0-1.685-.976-1.685-2.166 0-1.421.59-2.15 1.607-2.15.591 0 1.026.177 1.377.868" fill="#e51f26" fill-rule="evenodd"/><path clip-rule="evenodd" d="m57.377 70.146c-.043-.315-.077-.722-.077-1.029v-2.795c0-1.759-1.06-1.958-1.83-1.958-.47 0-1.163.131-1.642.323l.214.699c.394-.13.915-.238 1.231-.238.633 0 1.111.207 1.111 1.305v.185c-1.915.031-3.344.491-3.344 1.866 0 1.114.77 1.813 1.839 1.813.582 0 1.112-.123 1.625-.53.025.13.06.284.094.392m-.213-1.101c-.358.376-.804.515-1.231.515-.71 0-1.163-.392-1.163-1.114 0-.875.992-1.167 2.395-1.183v1.782z" fill="#e51f26" fill-rule="evenodd"/><path clip-rule="evenodd" d="m62.089 70.123-.153-.745c-.282.077-.625.123-.873.123-.59 0-1.103-.261-1.103-1.367v-2.872h1.83v-.707l-1.873.023-.154-1.636-.727.039v1.643l-.949.1v.538h.949v2.979c0 1.766 1.154 2.073 1.916 2.073.299 0 .727-.046 1.137-.191" fill="#e51f26" fill-rule="evenodd"/><path clip-rule="evenodd" d="m63.671 63.342v-1.367h-.923v1.367m.923 6.804v-5.59h-.923v5.59z" fill="#e51f26" fill-rule="evenodd"/><path clip-rule="evenodd" d="m69.829 67.335c0-2.027-.915-2.972-2.506-2.972-1.59 0-2.496.945-2.496 2.972 0 2.035.906 2.979 2.496 2.979 1.591 0 2.506-.944 2.506-2.979m-.932 0c0 1.528-.573 2.135-1.574 2.135-1 0-1.556-.607-1.556-2.135 0-1.536.556-2.143 1.556-2.143 1.001 0 1.574.607 1.574 2.143z" fill="#e51f26" fill-rule="evenodd"/><path clip-rule="evenodd" d="m75.592 70.146v-3.402c0-1.536-.684-2.381-2.172-2.381-.847 0-1.838.154-2.429.3v5.483h.915v-4.746c.437-.092.949-.146 1.42-.146 1.026 0 1.343.637 1.343 1.82v3.072" fill="#e51f26" fill-rule="evenodd"/><path clip-rule="evenodd" d="m80.305 68.533c0-.484-.197-.868-.607-1.16-.437-.292-.77-.376-1.343-.668-.496-.261-.667-.522-.667-.791 0-.484.334-.798.94-.798.445 0 .753.069 1.044.192l.085-.699c-.394-.169-.744-.246-1.266-.246-.949 0-1.719.607-1.719 1.598 0 .491.196.921.616 1.229.495.346 1.214.545 1.615.853.257.2.343.369.343.568 0 .714-.65.952-1.334.952-.582 0-1.001-.115-1.395-.307l-.11.768c.401.154.838.292 1.556.292.941-.002 2.242-.378 2.242-1.783" fill="#e51f26" fill-rule="evenodd"/><path d="m31.893 54.971 2.497 5.115h-1.163l-1.334-2.719-1.325 2.719h-1.172z" fill="#e51f26"/><path d="m49.946 52.813h3.054v1.006h-3.07c-1.702 0-2.549 1.152-2.549 2.634 0 1.543.847 2.634 2.592 2.634h3.027v.999h-3.02c-2.591 0-3.694-1.705-3.694-3.632 0-1.821 1.146-3.641 3.66-3.641" fill="#0071bc"/><path d="m12.028 55.924h4.592c-.196-1.897-1.12-2.312-2.095-2.312-1.548 0-2.343.96-2.497 2.312m5.721.983h-5.739c.129 1.413.881 2.38 2.429 2.38 1.044 0 1.813-.399 2.378-.822l.581.883c-.77.591-1.804.929-2.959.929-2.522 0-3.54-1.843-3.54-3.824s1.111-3.832 3.626-3.832c1.855 0 3.224 1.175 3.224 4.055z" fill="#0071bc"/><path d="m54.974 55.924h4.593c-.196-1.897-1.12-2.312-2.087-2.312-1.556 0-2.343.96-2.506 2.312m5.731.983h-5.738c.128 1.413.872 2.38 2.42 2.38 1.043 0 1.821-.399 2.377-.822l.582.883c-.77.591-1.805.929-2.959.929-2.515 0-3.532-1.843-3.532-3.824s1.104-3.832 3.626-3.832c1.848 0 3.216 1.175 3.225 4.055v.231z" fill="#0071bc"/><path d="m4.246 56.676h2.797c1.3 0 1.762-.507 1.762-1.413 0-1.083-.564-1.413-1.702-1.413h-2.857m3.677 3.748 2.061 2.488h-1.445l-1.949-2.412h-2.344v2.412h-1.095v-6.719c0-.308.248-.553.548-.553h3.403c.872 0 1.496.154 1.95.507.563.399.847 1.152.847 1.928 0 1.358-.771 2.118-1.976 2.349z" fill="#0071bc"/><path d="m25.061 52.813h1.094v7.272h-1.094z" fill="#0071bc"/><path d="m32.202 53.328c-.077-.169-.137-.276-.309-.276-.162 0-.222.107-.299.276l-3.301 6.758h-1.223l3.463-7.096c.368-.752.753-1.075 1.359-1.075.616 0 .992.323 1.36 1.075l3.463 7.096h-1.214z" fill="#0071bc"/><path d="m24.017 59.057v1.029h-4.523c-.308 0-.548-.238-.548-.545v-6.727h1.095v6.243z" fill="#0071bc"/><path d="m43.986 52.813h1.103v6.834c0 .346-.23.545-.547.545-.18 0-.316-.084-.428-.2l-5.379-5.437v5.529h-1.095v-6.919c0-.307.18-.545.548-.545.162 0 .299.069.401.177l5.396 5.375v-5.359" fill="#0071bc"/><g fill="#e51f26"><path d="m5.11 77.894-.223-.929h-1.043l-.214.929h-.479l.744-3.164h.967l.761 3.164m-1.155-2.734h-.214l-.325 1.375h.872z"/><path d="m7.53 77.894v-1.167c0-.422-.094-.676-.496-.676-.162 0-.342.023-.496.054v1.789h-.471v-2.15c.24-.062.659-.131 1.018-.131.624 0 .915.338.915.945v1.336"/><path d="m8.59 75.252v-.568h.47v.568m-.47 2.642v-2.204h.47v2.204z"/><path d="m10.257 77.955c-.256 0-.624-.1-.624-.722v-2.473l.479-.077v2.526c0 .292.111.353.257.353.043 0 .086-.008.12-.008l.094.361"/><path d="m13.405 77.917c-.385 0-.676 0-.958-.031v-3.156c.376-.039.548-.046 1.026-.046.881 0 1.411.553 1.411 1.674 0 1.137-.676 1.559-1.479 1.559m.034-2.811c-.223 0-.334.008-.496.016v2.35c.128.016.265.016.444.016.325 0 .976-.1.976-1.129 0-1.038-.471-1.253-.924-1.253z"/><path d="m16.902 77.894v-1.167c0-.422-.094-.676-.495-.676-.163 0-.352.039-.496.069v1.774h-.471v-3.133l.471-.077v.998c.162-.039.367-.069.556-.069.615 0 .906.323.906.945v1.336"/><path d="m17.962 75.252v-.568h.471v.568m-.471 2.642v-2.204h.471v2.204z"/><path d="m20.135 76.051c-.223 0-.445.046-.625.223v1.62h-.479v-2.204h.376l.043.2c.196-.215.41-.277.719-.277l.042.446"/><path d="m21.511 77.955c-.633 0-.923-.338-.923-.96v-1.305h.47v1.159c0 .423.103.668.496.668.163 0 .343-.016.496-.039v-1.788h.479v2.158"/><path d="m23.983 77.955c-.342 0-.547-.031-.863-.123v-3.072l.479-.077v.983c.129-.031.282-.054.428-.054.624 0 1.043.369 1.043 1.167-.001.807-.48 1.176-1.087 1.176m.025-1.927c-.137 0-.281.023-.41.062v1.413c.137.039.248.054.385.054.316 0 .607-.223.607-.775 0-.547-.23-.754-.582-.754z"/><path d="m27.036 77.894v-1.167c0-.422-.094-.676-.495-.676-.163 0-.351.039-.496.069v1.774h-.471v-3.133l.471-.077v.998c.171-.039.367-.069.564-.069.606 0 .906.323.906.945v1.336"/><path d="m29.379 77.909c-.018-.039-.025-.084-.043-.138-.196.138-.41.184-.633.184-.437 0-.744-.276-.744-.707 0-.538.548-.722 1.309-.745v-.039c0-.376-.146-.46-.394-.46-.128 0-.333.038-.496.092l-.111-.345c.206-.077.505-.139.71-.139.325 0 .762.084.762.776v1.067c0 .138.017.299.034.43m-.505-1.059c-.471.008-.829.1-.829.407 0 .246.162.376.41.376.137 0 .299-.046.419-.162z"/><path d="m30.354 75.252v-.568h.471v.568m-.471 2.642v-2.204h.471v2.204z"/><path d="m34.647 77.894-.214-.929h-1.052l-.214.929h-.479l.744-3.164h.966l.762 3.164m-1.155-2.734h-.214l-.324 1.375h.872z"/><path d="m38.478 77.894v-1.167c0-.43-.094-.676-.487-.676-.162 0-.359.046-.53.153.043.092.06.208.06.354v1.336h-.479v-1.167c0-.422-.094-.676-.487-.676-.154 0-.325.023-.479.046v1.797h-.471v-2.15c.239-.062.649-.131 1.009-.131.248 0 .462.054.607.192.266-.138.564-.192.821-.192.624 0 .915.338.915.945v1.336"/><path d="m40.403 77.955c-.343 0-.548-.031-.864-.123v-3.072l.471-.077v.983c.137-.031.282-.054.436-.054.625 0 1.044.369 1.044 1.167-.001.807-.481 1.176-1.087 1.176m.016-1.927c-.137 0-.273.023-.41.062v1.413c.146.039.248.054.385.054.325 0 .615-.223.615-.775 0-.547-.239-.754-.59-.754z"/><path d="m43.292 77.909c-.008-.039-.017-.084-.034-.138-.205.138-.41.184-.641.184-.428 0-.744-.276-.744-.707 0-.538.556-.722 1.316-.745v-.039c0-.376-.145-.46-.393-.46-.129 0-.343.038-.496.092l-.111-.345c.205-.077.504-.139.701-.139.333 0 .77.084.77.776v1.067c0 .138.018.299.034.43m-.504-1.059c-.47.008-.829.1-.829.407 0 .246.162.376.41.376.137 0 .3-.046.419-.162z"/><path d="m45.739 77.894v-1.167c0-.422-.094-.676-.496-.676-.162 0-.342.023-.496.054v1.789h-.471v-2.15c.24-.062.659-.131 1.019-.131.633 0 .915.338.915.945v1.336"/><path d="m46.799 75.252v-.568h.47v.568m-.47 2.642v-2.204h.47v2.204z"/><path d="m51.254 75.49c-.171-.307-.394-.384-.684-.384-.53 0-.805.461-.805 1.206 0 .783.282 1.213.83 1.213.188 0 .351-.023.521-.061v-.722h-.581l.034-.415h1v1.467c-.299.107-.676.161-.983.161-.795 0-1.343-.46-1.343-1.643 0-1.152.599-1.644 1.326-1.644.547 0 .813.185 1.009.522"/><path d="m53.316 76.051c-.223 0-.445.046-.625.223v1.62h-.47v-2.204h.367l.043.2c.196-.215.41-.277.719-.277l.051.446"/><path d="m54.692 77.955c-.658 0-1.034-.369-1.034-1.175 0-.799.376-1.167 1.034-1.167.65 0 1.035.369 1.035 1.167 0 .806-.385 1.175-1.035 1.175m0-1.927c-.351 0-.547.207-.547.752 0 .561.196.768.547.768.352 0 .548-.208.548-.768 0-.545-.197-.752-.548-.752z"/><path d="m57.138 77.955c-.633 0-.924-.338-.924-.96v-1.305h.479v1.159c0 .423.094.668.487.668.162 0 .333-.016.496-.039v-1.788h.47v2.158"/><path d="m59.61 77.955c-.12 0-.266-.015-.385-.054v1.052h-.479v-3.263h.368l.017.153c.163-.138.394-.238.616-.238.547 0 .958.376.958 1.175 0 .806-.446 1.175-1.095 1.175m.077-1.896c-.172 0-.325.061-.462.192v1.229c.111.046.248.069.376.069.359 0 .616-.215.616-.768 0-.546-.265-.722-.53-.722z"/></g><path clip-rule="evenodd" d="m3.023 72.534h76.923" fill="#231f20" fill-rule="evenodd"/><path d="m3.023 72.534h76.923" fill="none" stroke="#0071bc" stroke-miterlimit="3.8637" stroke-width=".2593"/><path d="m31.817 20.423 14.896 30.525h-6.961l-7.935-16.219-7.919 16.219h-6.97z" fill="#e51f26"/><path d="m33.647 10.593c-.488-.975-.821-1.651-1.83-1.651-.992 0-1.343.676-1.813 1.651l-19.686 40.355h-7.286l20.669-42.366c2.189-4.485 4.481-6.42 8.116-6.42 3.643 0 5.935 1.935 8.124 6.42l20.669 42.366h-7.286z" fill="#0071bc"/></svg>